
<svg version="1.0" xmlns="http://www.w3.org/2000/svg"
 width="1280.000000pt" height="1178.000000pt" viewBox="0 0 1280.000000 1178.000000"
 preserveAspectRatio="xMidYMid meet">

<g transform="translate(0.000000,1178.000000) scale(0.100000,-0.100000)"
fill="#000000" stroke="none">
<path d="M6085 11042 c-618 -1252 -1500 -3037 -1511 -3055 -12 -20 -26 -23
-749 -127 -192 -28 -471 -68 -620 -90 -148 -22 -675 -98 -1170 -170 -1214
-176 -1506 -219 -1532 -225 -26 -6 -10 -21 1097 -1100 907 -884 1760 -1718
1799 -1759 l35 -36 -13 -77 c-7 -43 -163 -955 -347 -2028 -184 -1072 -333
-1953 -331 -1956 1 -4 180 86 397 200 217 115 1012 532 1765 928 754 396 1399
735 1433 752 l64 32 926 -487 c1699 -893 2416 -1270 2575 -1353 143 -75 157
-81 153 -60 -3 13 -35 197 -71 409 -35 212 -78 464 -95 560 -16 96 -55 321
-85 500 -31 179 -67 388 -80 465 -14 77 -99 574 -189 1105 -91 531 -167 976
-170 990 -4 23 63 92 587 602 1729 1685 2351 2294 2350 2303 -2 10 -64 20
-643 104 -614 90 -1928 281 -2205 321 -148 22 -427 62 -620 90 -483 69 -597
88 -606 97 -4 4 -415 833 -913 1842 -498 1009 -909 1838 -914 1843 -4 4 -147
-275 -317 -620z"/>
</g>
</svg>
